<svg width="100" height="29" viewBox="0 0 100 29" fill="none" xmlns="http://www.w3.org/2000/svg">
<path fill-rule="evenodd" clip-rule="evenodd" d="M0.000442009 18.8189C-0.00855573 19.1227 0.120122 19.4173 0.358642 19.6391C0.597162 19.8609 0.926348 19.992 1.275 20.0041H1.3281C1.50414 20.0041 1.67843 19.9736 1.84082 19.9144C2.00321 19.8553 2.15047 19.7685 2.27402 19.6593C2.39756 19.5501 2.49494 19.4206 2.56048 19.2783C2.62602 19.136 2.65841 18.9837 2.65577 18.8304V11.3608C2.65577 8.35437 4.74684 6.88009 7.2694 6.88009C9.85834 6.88009 11.9162 8.38328 11.9162 11.3608V18.8189C11.9072 19.1227 12.0359 19.4173 12.2744 19.6391C12.5129 19.8609 12.8421 19.992 13.1908 20.0041H13.2306C13.4066 20.0041 13.5809 19.9736 13.7433 19.9144C13.9057 19.8553 14.053 19.7685 14.1765 19.6593C14.3001 19.5501 14.3974 19.4206 14.463 19.2783C14.5285 19.136 14.5609 18.9837 14.5583 18.8304V11.4186C14.5583 7.22698 11.4714 4.74093 7.58803 4.74093C6.66789 4.73137 5.7553 4.88654 4.90686 5.19683C4.05841 5.50713 3.29221 5.96592 2.65577 6.54476V5.96661C2.65577 5.65994 2.51589 5.36583 2.2669 5.14898C2.01792 4.93214 1.68022 4.81031 1.3281 4.81031C0.981663 4.81022 0.6489 4.92807 0.400848 5.1387C0.152795 5.34934 0.00910304 5.63607 0.000442009 5.9377V18.8304V18.8189ZM26.006 20.0619C30.9848 20.0619 34.7354 16.6797 34.7354 12.4014C34.7354 8.12311 30.9848 4.74093 26.006 4.74093C24.851 4.74093 23.7072 4.93908 22.64 5.32405C21.5729 5.70903 20.6033 6.2733 19.7865 6.98464C18.9697 7.69598 18.3218 8.54047 17.8798 9.46988C17.4378 10.3993 17.2103 11.3954 17.2103 12.4014C17.2103 13.4074 17.4378 14.4035 17.8798 15.333C18.3218 16.2624 18.9697 17.1069 19.7865 17.8182C20.6033 18.5295 21.5729 19.0938 22.64 19.4788C23.7072 19.8638 24.851 20.0619 26.006 20.0619ZM26.006 17.9227C22.5873 17.9227 19.932 15.4367 19.932 12.4014C19.932 9.36613 22.5873 6.88009 26.006 6.88009C29.4248 6.88009 32.0469 9.33723 32.0469 12.4014C32.0469 15.4656 29.4248 17.9227 26.006 17.9227ZM45.526 20.0619C50.5047 20.0619 54.2554 16.6797 54.2554 12.4014C54.2554 8.12311 50.5047 4.74093 45.526 4.74093C44.3709 4.74093 43.2272 4.93908 42.16 5.32405C41.0929 5.70903 40.1232 6.2733 39.3065 6.98464C38.4897 7.69598 37.8418 8.54047 37.3998 9.46988C36.9577 10.3993 36.7302 11.3954 36.7302 12.4014C36.7302 13.4074 36.9577 14.4035 37.3998 15.333C37.8418 16.2624 38.4897 17.1069 39.3065 17.8182C40.1232 18.5295 41.0929 19.0938 42.16 19.4788C43.2272 19.8638 44.3709 20.0619 45.526 20.0619ZM45.526 17.9227C42.1073 17.9227 39.4519 15.4367 39.4519 12.4014C39.4519 9.36613 42.1073 6.88009 45.526 6.88009C48.9447 6.88009 51.5669 9.33723 51.5669 12.4014C51.5669 15.4656 48.9447 17.9227 45.526 17.9227ZM59.5826 18.8189C59.5736 19.1227 59.7023 19.4173 59.9408 19.6391C60.1793 19.8609 60.5085 19.992 60.8572 20.0041H60.9103C61.0863 20.0041 61.2606 19.9736 61.423 19.9144C61.5854 19.8553 61.7326 19.7685 61.8562 19.6593C61.9797 19.5501 62.0771 19.4206 62.1427 19.2783C62.2082 19.136 62.2406 18.9837 62.2379 18.8304V7.16916H66.055C66.2158 7.16954 66.3752 7.14233 66.5239 7.08907C66.6727 7.03582 66.808 6.95757 66.922 6.85878C67.036 6.76 67.1266 6.64262 67.1886 6.51335C67.2505 6.38408 67.2826 6.24545 67.2831 6.10537V6.10537C67.2884 5.82727 67.1671 5.55864 66.9457 5.35821C66.7243 5.15779 66.4207 5.04186 66.1014 5.03579H55.7324C55.5716 5.03541 55.4122 5.06262 55.2634 5.11588C55.1147 5.16913 54.9794 5.24739 54.8654 5.34617C54.7513 5.44495 54.6608 5.56233 54.5988 5.6916C54.5369 5.82087 54.5048 5.95951 54.5043 6.09959V6.09959C54.5094 6.38186 54.6405 6.65132 54.8697 6.85095C55.0989 7.05057 55.4083 7.16469 55.7324 7.16916H59.5826V18.8189ZM69.1683 18.8189C69.1594 19.1227 69.288 19.4173 69.5265 19.6391C69.7651 19.8609 70.0943 19.992 70.4429 20.0041H70.496C70.6721 20.0041 70.8463 19.9736 71.0087 19.9144C71.1711 19.8553 71.3184 19.7685 71.4419 19.6593C71.5655 19.5501 71.6628 19.4206 71.7284 19.2783C71.7939 19.136 71.8263 18.9837 71.8237 18.8304V7.16916H74.9437C76.8024 7.16916 77.9641 8.29656 77.9641 9.68411C77.9641 11.0717 76.7692 12.1991 74.9769 12.1991H74.5786C74.4113 12.1991 74.2458 12.2278 74.0913 12.2836C73.9369 12.3394 73.7966 12.4213 73.6785 12.5244C73.5604 12.6275 73.4668 12.7499 73.4031 12.8845C73.3395 13.0192 73.3069 13.1635 73.3073 13.3091C73.3058 13.3148 73.3058 13.3208 73.3073 13.3265C73.3031 13.6222 73.4209 13.9094 73.6393 14.1359L78.9167 19.5705C79.0314 19.7063 79.1814 19.8164 79.3546 19.8918C79.5277 19.9672 79.7189 20.0057 79.9125 20.0041C80.1655 20.0056 80.4138 19.944 80.628 19.8267C80.8423 19.7093 81.0135 19.5411 81.1217 19.3419C81.2298 19.1426 81.2703 18.9205 81.2383 18.7019C81.2064 18.4832 81.1034 18.2771 80.9414 18.1078L77.0248 14.0896C77.2085 14.0486 77.3865 13.9905 77.5559 13.9162C78.6516 13.4504 79.5326 12.6735 80.0538 11.7134C80.5749 10.7533 80.7052 9.66733 80.4231 8.63419C80.141 7.60105 79.4634 6.68235 78.5019 6.02935C77.5403 5.37635 76.3521 5.02797 75.1329 5.04157H70.4861C70.3165 5.03734 70.1476 5.06225 69.9891 5.11488C69.8306 5.16751 69.6855 5.24683 69.5622 5.34831C69.4389 5.44979 69.3398 5.57143 69.2705 5.70629C69.2012 5.84115 69.1631 5.98659 69.1584 6.13428C69.1551 6.15538 69.1551 6.17677 69.1584 6.19787L69.1683 18.8189ZM83.8291 18.8189C83.8201 19.1227 83.9487 19.4173 84.1873 19.6391C84.4258 19.8609 84.755 19.992 85.1036 20.0041H85.1567C85.3328 20.0041 85.5071 19.9736 85.6694 19.9144C85.8318 19.8553 85.9791 19.7685 86.1026 19.6593C86.2262 19.5501 86.3236 19.4206 86.3891 19.2783C86.4546 19.136 86.487 18.9837 86.4844 18.8304V5.96661C86.4844 5.65994 86.3445 5.36583 86.0955 5.14898C85.8465 4.93214 85.5088 4.81031 85.1567 4.81031C84.8103 4.81022 84.4775 4.92807 84.2295 5.1387C83.9814 5.34934 83.8377 5.63607 83.8291 5.9377C83.8257 5.94712 83.8257 5.95719 83.8291 5.96661V18.8189ZM85.1567 2.89085C85.5947 2.88489 86.0129 2.7307 86.3226 2.46092C86.6324 2.19114 86.8095 1.82696 86.8163 1.44548C86.8163 1.06214 86.6415 0.694507 86.3302 0.423446C86.019 0.152386 85.5969 0.000105903 85.1567 0.000105903C84.9408 -0.00218392 84.7266 0.0326797 84.5262 0.102696C84.3258 0.172713 84.1433 0.276505 83.9891 0.408113C83.8349 0.539721 83.7121 0.696555 83.6277 0.869613C83.5432 1.04267 83.4989 1.22855 83.4972 1.41657C83.4938 1.42599 83.4938 1.43606 83.4972 1.44548C83.4972 1.82882 83.672 2.19645 83.9832 2.46751C84.2945 2.73857 84.7166 2.89085 85.1567 2.89085ZM89.4451 16.4774C89.4451 18.3564 91.8349 20.0619 94.7225 20.0619C97.743 20.0619 100 18.0962 100 15.8125C100 13.0952 97.8425 12.0834 95.7515 11.5342C93.7932 10.985 92.2 10.4646 92.2 8.93252C92.1893 8.37507 92.4327 7.83665 92.8769 7.43517C93.3211 7.03369 93.9298 6.80187 94.5699 6.79047H94.7557C95.362 6.76783 95.9606 6.91586 96.4628 7.21263C96.9649 7.5094 97.344 7.93914 97.5438 8.4382C97.5975 8.67044 97.7434 8.8788 97.9558 9.02679C98.1682 9.17478 98.4336 9.25295 98.7055 9.24761C98.8618 9.24837 99.0168 9.22226 99.1615 9.17077C99.3062 9.11929 99.4379 9.04344 99.5489 8.94757C99.6599 8.8517 99.7481 8.7377 99.8084 8.6121C99.8687 8.4865 99.9 8.35176 99.9004 8.21561V8.21561C99.9004 6.2499 97.5438 4.74672 94.7557 4.74672C91.8017 4.74672 89.6442 6.56789 89.6442 8.9383C89.6442 11.8001 91.9676 12.5806 94.2579 13.2455C96.017 13.7659 97.3447 14.4307 97.3447 15.8761C97.3447 16.9746 96.3157 17.9863 94.7225 17.9863C94.0649 18.0043 93.4189 17.8327 92.8848 17.4982C92.3506 17.1637 91.9582 16.6849 91.7685 16.1363C91.6755 15.9036 91.4908 15.7072 91.2472 15.582C91.0036 15.4568 90.7169 15.4109 90.4381 15.4526C90.1593 15.4942 89.9065 15.6206 89.7246 15.8093C89.5428 15.998 89.4437 16.2368 89.4451 16.4832V16.4774ZM35.8009 28.7746C42.5388 28.7746 46.7209 26.144 47.4511 25.6815C47.6523 25.5605 47.8195 25.4014 47.9402 25.2162C48.0609 25.031 48.132 24.8244 48.1481 24.6119C48.1521 24.4711 48.1242 24.3309 48.0659 24.1995C48.0077 24.0681 47.9203 23.9479 47.8087 23.8459C47.6971 23.7439 47.5635 23.662 47.4156 23.605C47.2677 23.5479 47.1083 23.5168 46.9466 23.5135H46.92C46.6452 23.5242 46.3798 23.6046 46.1566 23.7447C43.086 25.5165 39.4842 26.4614 35.8009 26.4614C32.1175 26.4614 28.5157 25.5165 25.4451 23.7447C25.2222 23.6041 24.9567 23.5237 24.6817 23.5135C24.3548 23.515 24.0419 23.6294 23.8117 23.8315C23.5815 24.0336 23.4527 24.307 23.4536 24.5917V24.6119C23.4723 24.8239 23.5445 25.0296 23.665 25.2145C23.7855 25.3994 23.9513 25.5588 24.1506 25.6815C24.8808 26.144 29.0962 28.7746 35.8009 28.7746" fill="white"/>
</svg>
