<svg width="80" height="24" viewBox="0 0 80 24" fill="none" xmlns="http://www.w3.org/2000/svg">
<path fill-rule="evenodd" clip-rule="evenodd" d="M0.000353607 15.0551C-0.00684458 15.2981 0.0960976 15.5339 0.286913 15.7113C0.477729 15.8887 0.741079 15.9936 1.02 16.0033H1.06248C1.20332 16.0033 1.34274 15.9789 1.47266 15.9315C1.60257 15.8842 1.72037 15.8148 1.81921 15.7274C1.91805 15.6401 1.99595 15.5364 2.04838 15.4226C2.10081 15.3088 2.12673 15.187 2.12461 15.0643V9.0886C2.12461 6.68349 3.79747 5.50407 5.81552 5.50407C7.88667 5.50407 9.53297 6.70662 9.53297 9.0886V15.0551C9.52577 15.2981 9.62872 15.5339 9.81953 15.7113C10.0103 15.8887 10.2737 15.9936 10.5526 16.0033H10.5845C10.7253 16.0033 10.8647 15.9789 10.9947 15.9315C11.1246 15.8842 11.2424 15.8148 11.3412 15.7274C11.44 15.6401 11.518 15.5364 11.5704 15.4226C11.6228 15.3088 11.6487 15.187 11.6466 15.0643V9.13485C11.6466 5.78158 9.17716 3.79275 6.07043 3.79275C5.33431 3.78509 4.60424 3.90923 3.92548 4.15747C3.24673 4.4057 2.63377 4.77273 2.12461 5.23581V4.77329C2.12461 4.52795 2.01271 4.29266 1.81352 4.11919C1.61434 3.94571 1.34418 3.84825 1.06248 3.84825C0.78533 3.84817 0.51912 3.94245 0.320678 4.11096C0.122236 4.27947 0.00728243 4.50886 0.000353607 4.75016V15.0643V15.0551ZM20.8048 16.0495C24.7878 16.0495 27.7883 13.3438 27.7883 9.92113C27.7883 6.49849 24.7878 3.79275 20.8048 3.79275C19.8808 3.79274 18.9658 3.95126 18.112 4.25924C17.2583 4.56722 16.4826 5.01863 15.8292 5.58771C15.1758 6.15678 14.6575 6.83237 14.3038 7.5759C13.9502 8.31943 13.7682 9.11634 13.7682 9.92113C13.7682 10.7259 13.9502 11.5228 14.3038 12.2664C14.6575 13.0099 15.1758 13.6855 15.8292 14.2546C16.4826 14.8236 17.2583 15.275 18.112 15.583C18.9658 15.891 19.8808 16.0495 20.8048 16.0495ZM20.8048 14.3382C18.0698 14.3382 15.9456 12.3494 15.9456 9.92113C15.9456 7.4929 18.0698 5.50407 20.8048 5.50407C23.5398 5.50407 25.6375 7.46978 25.6375 9.92113C25.6375 12.3725 23.5398 14.3382 20.8048 14.3382ZM36.4208 16.0495C40.4038 16.0495 43.4043 13.3438 43.4043 9.92113C43.4043 6.49849 40.4038 3.79275 36.4208 3.79275C35.4967 3.79274 34.5817 3.95126 33.728 4.25924C32.8743 4.56722 32.0986 5.01863 31.4452 5.58771C30.7918 6.15678 30.2734 6.83237 29.9198 7.5759C29.5662 8.31943 29.3842 9.11634 29.3842 9.92113C29.3842 10.7259 29.5662 11.5228 29.9198 12.2664C30.2734 13.0099 30.7918 13.6855 31.4452 14.2546C32.0986 14.8236 32.8743 15.275 33.728 15.583C34.5817 15.891 35.4967 16.0495 36.4208 16.0495ZM36.4208 14.3382C33.6858 14.3382 31.5616 12.3494 31.5616 9.92113C31.5616 7.4929 33.6858 5.50407 36.4208 5.50407C39.1558 5.50407 41.2535 7.46978 41.2535 9.92113C41.2535 12.3725 39.1558 14.3382 36.4208 14.3382ZM47.6661 15.0551C47.6589 15.2981 47.7618 15.5339 47.9527 15.7113C48.1435 15.8887 48.4068 15.9936 48.6857 16.0033H48.7282C48.8691 16.0033 49.0085 15.9789 49.1384 15.9315C49.2683 15.8842 49.3861 15.8148 49.485 15.7274C49.5838 15.6401 49.6617 15.5364 49.7141 15.4226C49.7666 15.3088 49.7925 15.187 49.7904 15.0643V5.73533H52.844C52.9727 5.73563 53.1001 5.71386 53.2191 5.67126C53.3382 5.62865 53.4464 5.56605 53.5376 5.48702C53.6288 5.408 53.7013 5.3141 53.7509 5.21068C53.8004 5.10726 53.8261 4.99636 53.8265 4.88429V4.88429C53.8307 4.66181 53.7337 4.44691 53.5565 4.28657C53.3794 4.12623 53.1366 4.03349 52.8812 4.02863H44.5859C44.4573 4.02833 44.3298 4.0501 44.2108 4.0927C44.0918 4.13531 43.9835 4.19791 43.8923 4.27693C43.8011 4.35596 43.7286 4.44986 43.6791 4.55328C43.6295 4.6567 43.6038 4.7676 43.6035 4.87967V4.87967C43.6076 5.10549 43.7124 5.32106 43.8958 5.48076C44.0791 5.64045 44.3266 5.73175 44.5859 5.73533H47.6661V15.0551ZM55.3347 15.0551C55.3275 15.2981 55.4304 15.5339 55.6212 15.7113C55.8121 15.8887 56.0754 15.9936 56.3543 16.0033H56.3968C56.5376 16.0033 56.6771 15.9789 56.807 15.9315C56.9369 15.8842 57.0547 15.8148 57.1535 15.7274C57.2524 15.6401 57.3303 15.5364 57.3827 15.4226C57.4351 15.3088 57.4611 15.187 57.4589 15.0643V5.73533H59.9549C61.4419 5.73533 62.3713 6.63724 62.3713 7.74729C62.3713 8.85734 61.4154 9.75925 59.9815 9.75925H59.6629C59.5291 9.75925 59.3966 9.78223 59.2731 9.82689C59.1495 9.87155 59.0373 9.937 58.9428 10.0195C58.8483 10.102 58.7735 10.1999 58.7225 10.3076C58.6716 10.4154 58.6455 10.5308 58.6459 10.6473C58.6446 10.6518 58.6446 10.6566 58.6459 10.6612C58.6425 10.8977 58.7367 11.1275 58.9114 11.3087L63.1334 15.6564C63.2251 15.765 63.3452 15.8531 63.4837 15.9135C63.6222 15.9738 63.7751 16.0045 63.93 16.0033C64.1324 16.0044 64.331 15.9552 64.5024 15.8613C64.6738 15.7675 64.8108 15.6329 64.8973 15.4735C64.9838 15.3141 65.0162 15.1364 64.9907 14.9615C64.9651 14.7866 64.8827 14.6217 64.7531 14.4862L61.6198 11.2717C61.7668 11.2389 61.9092 11.1924 62.0447 11.1329C62.9213 10.7603 63.6261 10.1388 64.043 9.37071C64.4599 8.60266 64.5641 7.73386 64.3385 6.90735C64.1128 6.08084 63.5707 5.34588 62.8015 4.82348C62.0322 4.30108 61.0817 4.02238 60.1063 4.03326H56.3888C56.2532 4.02987 56.1181 4.0498 55.9913 4.0919C55.8645 4.13401 55.7484 4.19746 55.6498 4.27865C55.5512 4.35983 55.4718 4.45714 55.4164 4.56503C55.361 4.67292 55.3305 4.78927 55.3267 4.90742C55.3241 4.9243 55.3241 4.94141 55.3267 4.95829L55.3347 15.0551ZM67.0633 15.0551C67.0561 15.2981 67.159 15.5339 67.3498 15.7113C67.5406 15.8887 67.804 15.9936 68.0829 16.0033H68.1254C68.2662 16.0033 68.4056 15.9789 68.5356 15.9315C68.6655 15.8842 68.7833 15.8148 68.8821 15.7274C68.981 15.6401 69.0589 15.5364 69.1113 15.4226C69.1637 15.3088 69.1896 15.187 69.1875 15.0643V4.77329C69.1875 4.52795 69.0756 4.29266 68.8764 4.11919C68.6772 3.94571 68.4071 3.84825 68.1254 3.84825C67.8482 3.84817 67.582 3.94245 67.3836 4.11096C67.1851 4.27947 67.0702 4.50886 67.0633 4.75016C67.0606 4.7577 67.0606 4.76575 67.0633 4.77329V15.0551ZM68.1254 2.31268C68.4758 2.30791 68.8103 2.18456 69.0581 1.96874C69.3059 1.75291 69.4476 1.46157 69.4531 1.15638C69.4531 0.849714 69.3132 0.555605 69.0642 0.338757C68.8152 0.121909 68.4775 8.47222e-05 68.1254 8.47222e-05C67.9527 -0.00174714 67.7813 0.0261438 67.621 0.0821571C67.4607 0.138171 67.3146 0.221204 67.1913 0.32649C67.0679 0.431777 66.9697 0.557243 66.9021 0.69569C66.8346 0.834137 66.7991 0.982837 66.7977 1.13326C66.7951 1.14079 66.7951 1.14885 66.7977 1.15638C66.7977 1.46305 66.9376 1.75716 67.1866 1.97401C67.4356 2.19086 67.7733 2.31268 68.1254 2.31268ZM71.5561 13.1819C71.5561 14.6851 73.4679 16.0495 75.778 16.0495C78.1944 16.0495 80 14.4769 80 12.65C80 10.4762 78.274 9.66675 76.6012 9.22735C75.0345 8.78796 73.76 8.37169 73.76 7.14601C73.7515 6.70005 73.9462 6.26932 74.3015 5.94813C74.6569 5.62695 75.1439 5.44149 75.6559 5.43238H75.8046C76.2896 5.41426 76.7685 5.53268 77.1702 5.7701C77.5719 6.00752 77.8752 6.35131 78.0351 6.75056C78.078 6.93635 78.1947 7.10304 78.3646 7.22143C78.5345 7.33982 78.7469 7.40236 78.9644 7.39809C79.0895 7.39869 79.2134 7.37781 79.3292 7.33662C79.445 7.29543 79.5503 7.23475 79.6391 7.15805C79.7279 7.08136 79.7985 6.99016 79.8467 6.88968C79.895 6.78919 79.92 6.68141 79.9203 6.57249V6.57249C79.9203 4.99992 78.0351 3.79737 75.8046 3.79737C73.4413 3.79737 71.7154 5.25431 71.7154 7.15064C71.7154 9.44011 73.5741 10.0645 75.4063 10.5964C76.8136 11.0127 77.8757 11.5446 77.8757 12.7009C77.8757 13.5797 77.0526 14.3891 75.778 14.3891C75.252 14.4035 74.7351 14.2662 74.3078 13.9986C73.8805 13.7309 73.5666 13.3479 73.4148 12.909C73.3404 12.7229 73.1927 12.5657 72.9978 12.4656C72.8029 12.3654 72.5735 12.3287 72.3505 12.362C72.1274 12.3953 71.9252 12.4965 71.7797 12.6474C71.6343 12.7984 71.555 12.9894 71.5561 13.1865V13.1819ZM28.6407 23.0197C34.031 23.0197 37.3767 20.9152 37.9609 20.5452C38.1218 20.4484 38.2556 20.3211 38.3521 20.173C38.4487 20.0248 38.5056 19.8595 38.5185 19.6895C38.5217 19.5769 38.4993 19.4647 38.4527 19.3596C38.4061 19.2544 38.3362 19.1583 38.247 19.0767C38.1577 18.9951 38.0508 18.9296 37.9325 18.884C37.8142 18.8383 37.6867 18.8135 37.5573 18.8108H37.536C37.3161 18.8194 37.1039 18.8837 36.9253 18.9958C34.4688 20.4132 31.5874 21.1691 28.6407 21.1691C25.694 21.1691 22.8126 20.4132 20.3561 18.9958C20.1777 18.8833 19.9654 18.819 19.7454 18.8108C19.4838 18.812 19.2336 18.9035 19.0494 19.0652C18.8652 19.2269 18.7622 19.4456 18.7629 19.6734V19.6895C18.7779 19.8591 18.8356 20.0237 18.932 20.1716C19.0284 20.3195 19.161 20.4471 19.3205 20.5452C19.9047 20.9152 23.2769 23.0197 28.6407 23.0197" fill="white"/>
</svg>
