<svg width="60" height="60" viewBox="0 0 60 60" fill="none" xmlns="http://www.w3.org/2000/svg">
<path fill-rule="evenodd" clip-rule="evenodd" d="M11.8001 6.66667C12.0001 9.63334 12.5001 12.5333 13.3001 15.3L9.30011 19.3C7.93345 15.3 7.06678 11.0667 6.76678 6.66667H11.8001V6.66667ZM44.6665 46.7334C47.4999 47.5334 50.3999 48.0334 53.3332 48.2334V53.2001C48.9332 52.9001 44.6999 52.0334 40.6665 50.7001L44.6665 46.7334V46.7334ZM15 0H3.33333C1.5 0 0 1.5 0 3.33333C0 34.6333 25.3667 60 56.6667 60C58.5 60 60 58.5 60 56.6667V45.0333C60 43.2 58.5 41.7 56.6667 41.7C52.5333 41.7 48.5 41.0333 44.7667 39.8C44.4333 39.6667 44.0667 39.6333 43.7333 39.6333C42.8667 39.6333 42.0333 39.9667 41.3667 40.6L34.0333 47.9333C24.6 43.1 16.8667 35.4 12.0667 25.9667L19.4 18.6333C20.3333 17.7 20.6 16.4 20.2333 15.2333C19 11.5 18.3333 7.5 18.3333 3.33333C18.3333 1.5 16.8333 0 15 0Z" fill="white"/>
</svg>
