<svg width="25" height="25" viewBox="0 0 25 25" fill="none" xmlns="http://www.w3.org/2000/svg">
<path fill-rule="evenodd" clip-rule="evenodd" d="M4.91674 2.77776C5.00007 4.01387 5.20841 5.2222 5.54174 6.37498L3.87507 8.04165C3.30563 6.37498 2.94452 4.61109 2.81952 2.77776H4.91674V2.77776ZM18.611 19.4722C19.7916 19.8056 20.9999 20.0139 22.2222 20.0972V22.1667C20.3888 22.0417 18.6249 21.6806 16.9444 21.125L18.611 19.4722V19.4722ZM6.25 0H1.38889C0.625 0 0 0.625 0 1.38889C0 14.4306 10.5694 25 23.6111 25C24.375 25 25 24.375 25 23.6111V18.7639C25 18 24.375 17.375 23.6111 17.375C21.8889 17.375 20.2083 17.0972 18.6528 16.5833C18.5139 16.5278 18.3611 16.5139 18.2222 16.5139C17.8611 16.5139 17.5139 16.6528 17.2361 16.9167L14.1806 19.9722C10.25 17.9583 7.02778 14.75 5.02778 10.8194L8.08333 7.76389C8.47222 7.375 8.58333 6.83333 8.43056 6.34722C7.91667 4.79167 7.63889 3.125 7.63889 1.38889C7.63889 0.625 7.01389 0 6.25 0Z" fill="white"/>
</svg>
